<?xml version="1.0" standalone="no"?><svg xmlns:xlink="http://www.w3.org/1999/xlink" xmlns="http://www.w3.org/2000/svg" viewBox="0 0 1000 545.4578860578667" preserveAspectRatio="xMaxYMax slice"><g transform="scale(1.1483323917007722)"><rect x="0" y="0" width="870.8333333333334" height="475" fill="#ffffff"/><rect x="0" y="0" width="79.17" height="79.17" fill="#f2bcc9"/><path d="M 0 0 A 79.17 79.17 0 0 1  79.17 79.17 L 0 0 A 79.17 79.17 0 0 0 79.17 79.17" fill="#e1617f"/><rect x="79.17" y="0" width="79.17" height="79.17" fill="#e16582"/><polygon points="79.17,0 158.34,79.17 79.17,79.17" fill="#fdf3f6"/><rect x="158.33" y="0" width="79.17" height="79.17" fill="#f8dce3"/><g transform="translate(158.33,0) scale(3.9585) rotate(0)"><rect width="20" height="10" fill="#5b849b"/></g><rect x="237.5" y="0" width="79.16666666666667" height="79.16666666666667" fill="#ffffff"/><rect x="237.5" y="0" width="39.58" height="39.58" fill="#ed9fb1"/><polygon points="237.5,0 277.08,0 277.08,39.58" fill="#f5ccd5"/><rect x="277.08" y="0" width="39.58" height="39.58" fill="#de5475"/><polygon points="277.08,0 316.65999999999997,0 316.65999999999997,39.58" fill="#e05c7b"/><rect x="237.5" y="39.58" width="39.58" height="39.58" fill="#7b9daf"/><polygon points="277.08,39.58 277.08,79.16 237.5,79.16" fill="#dd4e70"/><rect x="277.08" y="39.58" width="39.58" height="39.58" fill="#fafcfc"/><polygon points="277.08,39.58 316.65999999999997,79.16 277.08,79.16" fill="#e98aa1"/><rect x="316.67" y="0" width="79.17" height="79.17" fill="#698fa4"/><polygon points="395.84000000000003,0 395.84000000000003,79.17 316.67,79.17" fill="#e5758f"/><rect x="395.83" y="0" width="79.17" height="79.17" fill="#fcf1f4"/><path d="M 395.83 0 A 79.17 79.17 0 0 1  475 79.17 L 395.83 0 A 79.17 79.17 0 0 0 475 79.17" fill="#eb95a9"/><rect x="475" y="0" width="79.17" height="79.17" fill="#dee7eb"/><path d="M 475 79.17 A 79.17 79.17 0 0 0 554.17 0 L 475 0" fill="#f1b8c6"/><rect x="554.17" y="0" width="79.17" height="79.17" fill="#8caab9"/><path d="M 554.17 0 A 79.17 79.17 0 0 1  633.3399999999999 79.17 L 554.17 0 A 79.17 79.17 0 0 0 633.3399999999999 79.17" fill="#e05d7c"/><rect x="633.33" y="0" width="79.17" height="79.17" fill="#e98ea3"/><path d="M 633.33 79.17 A 79.17 79.17 0 0 1  712.5 0 L 633.33 79.17 A 79.17 79.17 0 0 0 712.5 0" fill="#beced7"/><rect x="712.5" y="0" width="79.16666666666667" height="79.16666666666667" fill="#ffffff"/><rect x="712.5" y="0" width="39.58" height="39.58" fill="#f8dbe2"/><path d="M 712.5 39.58 A 39.58 39.58 0 0 1  752.08 0 L 752.08 39.58" fill="#497791"/><rect x="752.08" y="0" width="39.58" height="39.58" fill="#f2bbc8"/><rect x="752.08" y="0" width="39.58" height="39.58" fill="#f5f8f9"/><rect x="712.5" y="39.58" width="39.58" height="39.58" fill="#e9eff2"/><g transform="translate(712.5,39.58) scale(1.9789999999999999) rotate(0)"><rect width="20" height="10" fill="#eea4b5"/></g><rect x="752.08" y="39.58" width="39.58" height="39.58" fill="#a6bdc9"/><rect x="752.08" y="39.58" width="39.58" height="39.58" fill="#e05c7b"/><rect x="791.67" y="0" width="79.17" height="79.17" fill="#346884"/><path d="M 791.67 0 A 79.17 79.17 0 0 0 870.8399999999999 79.17 L 870.8399999999999 0" fill="#a1b9c6"/><rect x="0" y="79.16666666666667" width="79.16666666666667" height="79.16666666666667" fill="#ffffff"/><rect x="0" y="79.17" width="39.58" height="39.58" fill="#fdf4f6"/><rect x="0" y="79.17" width="39.58" height="39.58" fill="#60899f"/><rect x="39.58" y="79.17" width="39.58" height="39.58" fill="#efaabb"/><rect x="39.58" y="79.17" width="39.58" height="39.58" fill="#f8fafb"/><rect x="0" y="118.75" width="39.58" height="39.58" fill="#80a0b2"/><rect x="0" y="118.75" width="39.58" height="39.58" fill="#e8eef1"/><rect x="39.58" y="118.75" width="39.58" height="39.58" fill="#e98ea3"/><polygon points="39.58,118.75 79.16,118.75 79.16,158.32999999999998" fill="#dd4f71"/><rect x="79.17" y="79.17" width="79.17" height="79.17" fill="#7e9fb1"/><path d="M 79.17 158.34 A 79.17 79.17 0 0 1  158.34 79.17 L 79.17 158.34 A 79.17 79.17 0 0 0 158.34 79.17" fill="#fbe9ed"/><rect x="158.33" y="79.17" width="79.17" height="79.17" fill="#e5ebef"/><g transform="translate(158.33,79.17) scale(3.9585) rotate(0)"><rect width="20" height="10" fill="#fcf2f4"/></g><rect x="237.5" y="79.17" width="79.17" height="79.17" fill="#d8e2e8"/><polygon points="237.5,79.17 316.67,79.17 237.5,158.34" fill="#ffffff"/><rect x="316.67" y="79.17" width="79.17" height="79.17" fill="#dc4a6d"/><rect x="316.67" y="79.17" width="79.17" height="79.17" fill="#e0e8ec"/><rect x="395.83" y="79.17" width="79.17" height="79.17" fill="#e57791"/><path d="M 395.83 158.34 A 79.17 79.17 0 0 0 475 79.17 L 395.83 79.17" fill="#e4728d"/><rect x="475" y="79.17" width="79.17" height="79.17" fill="#c9d7de"/><rect x="475" y="79.17" width="79.17" height="79.17" fill="#44738d"/><rect x="554.1666666666667" y="79.16666666666667" width="79.16666666666667" height="79.16666666666667" fill="#ffffff"/><rect x="554.17" y="79.17" width="39.58" height="39.58" fill="#e67c95"/><path d="M 554.17 118.75 A 39.58 39.58 0 0 1  593.75 79.17 L 554.17 118.75 A 39.58 39.58 0 0 0 593.75 79.17" fill="#92aebd"/><rect x="593.75" y="79.17" width="39.58" height="39.58" fill="#9db6c3"/><g transform="translate(593.75,79.17) scale(1.9789999999999999) rotate(0)"><rect width="20" height="10" fill="#db4569"/></g><rect x="554.17" y="118.75" width="39.58" height="39.58" fill="#e7edf1"/><polygon points="554.17,118.75 593.75,158.32999999999998 554.17,158.32999999999998" fill="#4f7c94"/><rect x="593.75" y="118.75" width="39.58" height="39.58" fill="#fdfefe"/><polygon points="593.75,118.75 633.33,118.75 633.33,158.32999999999998" fill="#e5ebef"/><rect x="633.3333333333334" y="79.16666666666667" width="79.16666666666667" height="79.16666666666667" fill="#ffffff"/><rect x="633.33" y="79.17" width="39.58" height="39.58" fill="#d4dfe5"/><path d="M 633.33 79.17 A 39.58 39.58 0 0 0 672.9100000000001 118.75 L 672.9100000000001 79.17" fill="#e05e7d"/><rect x="672.92" y="79.17" width="39.58" height="39.58" fill="#80a0b2"/><path d="M 672.92 79.17 A 39.58 39.58 0 0 0 712.5 118.75 L 712.5 79.17" fill="#527e96"/><rect x="633.33" y="118.75" width="39.58" height="39.58" fill="#f7d6de"/><path d="M 633.33 118.75 A 39.58 39.58 0 0 1  672.9100000000001 158.32999999999998 L 633.33 118.75 A 39.58 39.58 0 0 0 672.9100000000001 158.32999999999998" fill="#5b859c"/><rect x="672.92" y="118.75" width="39.58" height="39.58" fill="#fefbfc"/><path d="M 672.92 118.75 A 39.58 39.58 0 0 1  712.5 158.32999999999998 L 672.92 118.75 A 39.58 39.58 0 0 0 712.5 158.32999999999998" fill="#dc4a6d"/><rect x="712.5" y="79.16666666666667" width="79.16666666666667" height="79.16666666666667" fill="#ffffff"/><rect x="712.5" y="79.17" width="39.58" height="39.58" fill="#91adbd"/><polygon points="712.5,79.17 752.08,118.75 712.5,118.75" fill="#638ba0"/><rect x="752.08" y="79.17" width="39.58" height="39.58" fill="#f8d9e0"/><polygon points="752.08,79.17 791.6600000000001,118.75 752.08,118.75" fill="#96b1bf"/><rect x="712.5" y="118.75" width="39.58" height="39.58" fill="#de5172"/><g transform="translate(712.5,118.75) scale(1.9789999999999999) rotate(0)"><rect width="20" height="10" fill="#dd4d6f"/></g><rect x="752.08" y="118.75" width="39.58" height="39.58" fill="#7699ac"/><polygon points="752.08,118.75 791.6600000000001,118.75 752.08,158.32999999999998" fill="#f7d6de"/><rect x="791.6666666666667" y="79.16666666666667" width="79.16666666666667" height="79.16666666666667" fill="#ffffff"/><rect x="791.67" y="79.17" width="39.58" height="39.58" fill="#aabfcb"/><g transform="translate(791.67,79.17) scale(1.9789999999999999) rotate(0)"><rect width="20" height="10" fill="#d0dce3"/></g><rect x="831.25" y="79.17" width="39.58" height="39.58" fill="#628aa0"/><polygon points="831.25,79.17 870.83,118.75 831.25,118.75" fill="#ea93a8"/><rect x="791.67" y="118.75" width="39.58" height="39.58" fill="#f3c3ce"/><rect x="791.67" y="118.75" width="39.58" height="39.58" fill="#da4065"/><rect x="831.25" y="118.75" width="39.58" height="39.58" fill="#b1c5d0"/><path d="M 831.25 158.32999999999998 A 39.58 39.58 0 0 1  870.83 118.75 L 831.25 158.32999999999998 A 39.58 39.58 0 0 0 870.83 118.75" fill="#eea7b8"/><rect x="0" y="158.33333333333334" width="79.16666666666667" height="79.16666666666667" fill="#ffffff"/><rect x="0" y="158.33" width="39.58" height="39.58" fill="#e57590"/><g transform="translate(0,158.33) scale(1.9789999999999999) rotate(0)"><rect width="20" height="10" fill="#c9d7de"/></g><rect x="39.58" y="158.33" width="39.58" height="39.58" fill="#f6cfd8"/><g transform="translate(39.58,158.33) scale(1.9789999999999999) rotate(0)"><rect width="20" height="10" fill="#84a3b4"/></g><rect x="0" y="197.92" width="39.58" height="39.58" fill="#84a4b5"/><g transform="translate(0,197.92) scale(1.9789999999999999) rotate(0)"><rect width="20" height="10" fill="#f9dfe5"/></g><rect x="39.58" y="197.92" width="39.58" height="39.58" fill="#fffefe"/><path d="M 39.58 197.92 A 39.58 39.58 0 0 1  79.16 237.5 L 39.58 197.92 A 39.58 39.58 0 0 0 79.16 237.5" fill="#de5575"/><rect x="79.17" y="158.33" width="79.17" height="79.17" fill="#b5c8d2"/><path d="M 79.17 158.33 A 79.17 79.17 0 0 1  158.34 237.5 L 79.17 158.33 A 79.17 79.17 0 0 0 158.34 237.5" fill="#eb96aa"/><rect x="158.33333333333334" y="158.33333333333334" width="79.16666666666667" height="79.16666666666667" fill="#ffffff"/><rect x="158.33" y="158.33" width="39.58" height="39.58" fill="#fdf7f8"/><path d="M 158.33 158.33 A 39.58 39.58 0 0 1  197.91000000000003 197.91000000000003 L 158.33 158.33 A 39.58 39.58 0 0 0 197.91000000000003 197.91000000000003" fill="#e7849c"/><rect x="197.92" y="158.33" width="39.58" height="39.58" fill="#fef9fa"/><g transform="translate(197.92,158.33) scale(1.9789999999999999) rotate(0)"><rect width="20" height="10" fill="#f8dae1"/></g><rect x="158.33" y="197.92" width="39.58" height="39.58" fill="#8eabba"/><g transform="translate(158.33,197.92) scale(1.9789999999999999) rotate(0)"><rect width="20" height="10" fill="#e57590"/></g><rect x="197.92" y="197.92" width="39.58" height="39.58" fill="#eda1b3"/><polygon points="237.5,197.92 237.5,237.5 197.92,237.5" fill="#b9cad4"/><rect x="237.5" y="158.33" width="79.17" height="79.17" fill="#d2dde4"/><polygon points="237.5,158.33 316.67,237.5 237.5,237.5" fill="#abc1cc"/><rect x="316.67" y="158.33" width="79.17" height="79.17" fill="#eda3b5"/><path d="M 316.67 237.5 A 79.17 79.17 0 0 0 395.84000000000003 158.33 L 316.67 158.33" fill="#5f889e"/><rect x="395.83333333333337" y="158.33333333333334" width="79.16666666666667" height="79.16666666666667" fill="#ffffff"/><rect x="395.83" y="158.33" width="39.58" height="39.58" fill="#f5c9d3"/><path d="M 395.83 158.33 A 39.58 39.58 0 0 1 435.40999999999997 197.91000000000003 L 395.83 197.91000000000003" fill="#db4165"/><rect x="435.42" y="158.33" width="39.58" height="39.58" fill="#83a3b4"/><path d="M 435.42 158.33 A 39.58 39.58 0 0 1 475 197.91000000000003 L 435.42 197.91000000000003" fill="#7799ac"/><rect x="395.83" y="197.92" width="39.58" height="39.58" fill="#e05c7b"/><polygon points="395.83,197.92 435.40999999999997,197.92 435.40999999999997,237.5" fill="#f5c9d3"/><rect x="435.42" y="197.92" width="39.58" height="39.58" fill="#8ba8b9"/><polygon points="435.42,197.92 475,197.92 435.42,237.5" fill="#fdf6f8"/><rect x="475" y="158.33333333333334" width="79.16666666666667" height="79.16666666666667" fill="#ffffff"/><rect x="475" y="158.33" width="39.58" height="39.58" fill="#487690"/><polygon points="514.58,158.33 514.58,197.91000000000003 475,197.91000000000003" fill="#dc496c"/><rect x="514.58" y="158.33" width="39.58" height="39.58" fill="#f5cdd7"/><g transform="translate(514.58,158.33) scale(1.9789999999999999) rotate(0)"><rect width="20" height="10" fill="#83a2b4"/></g><rect x="475" y="197.92" width="39.58" height="39.58" fill="#ec9caf"/><path d="M 475 197.92 A 39.58 39.58 0 0 1  514.58 237.5 L 475 197.92 A 39.58 39.58 0 0 0 514.58 237.5" fill="#dd5071"/><rect x="514.58" y="197.92" width="39.58" height="39.58" fill="#becfd8"/><path d="M 514.58 197.92 A 39.58 39.58 0 0 1  554.1600000000001 237.5 L 514.58 197.92 A 39.58 39.58 0 0 0 554.1600000000001 237.5" fill="#285f7d"/><rect x="554.1666666666667" y="158.33333333333334" width="79.16666666666667" height="79.16666666666667" fill="#ffffff"/><rect x="554.17" y="158.33" width="39.58" height="39.58" fill="#df5777"/><path d="M 554.17 197.91000000000003 A 39.58 39.58 0 0 1  593.75 158.33 L 554.17 197.91000000000003 A 39.58 39.58 0 0 0 593.75 158.33" fill="#e16280"/><rect x="593.75" y="158.33" width="39.58" height="39.58" fill="#799bae"/><g transform="translate(593.75,158.33) scale(1.9789999999999999) rotate(0)"><rect width="20" height="10" fill="#88a7b7"/></g><rect x="554.17" y="197.92" width="39.58" height="39.58" fill="#a9bfcb"/><path d="M 554.17 197.92 A 39.58 39.58 0 0 0 593.75 237.5 L 593.75 197.92" fill="#baccd5"/><rect x="593.75" y="197.92" width="39.58" height="39.58" fill="#e4748f"/><path d="M 593.75 237.5 A 39.58 39.58 0 0 1  633.33 197.92 L 593.75 237.5 A 39.58 39.58 0 0 0 633.33 197.92" fill="#e8859d"/><rect x="633.33" y="158.33" width="79.17" height="79.17" fill="#3f708a"/><rect x="633.33" y="158.33" width="79.17" height="79.17" fill="#8caab9"/><rect x="712.5" y="158.33333333333334" width="79.16666666666667" height="79.16666666666667" fill="#ffffff"/><rect x="712.5" y="158.33" width="39.58" height="39.58" fill="#fdf3f5"/><polygon points="752.08,158.33 752.08,197.91000000000003 712.5,197.91000000000003" fill="#edf2f4"/><rect x="752.08" y="158.33" width="39.58" height="39.58" fill="#8facbb"/><path d="M 752.08 197.91000000000003 A 39.58 39.58 0 0 1  791.6600000000001 158.33 L 752.08 197.91000000000003 A 39.58 39.58 0 0 0 791.6600000000001 158.33" fill="#fef9fa"/><rect x="712.5" y="197.92" width="39.58" height="39.58" fill="#fffdfd"/><rect x="712.5" y="197.92" width="39.58" height="39.58" fill="#90adbc"/><rect x="752.08" y="197.92" width="39.58" height="39.58" fill="#44738d"/><polygon points="791.6600000000001,197.92 791.6600000000001,237.5 752.08,237.5" fill="#84a3b4"/><rect x="791.6666666666667" y="158.33333333333334" width="79.16666666666667" height="79.16666666666667" fill="#ffffff"/><rect x="791.67" y="158.33" width="39.58" height="39.58" fill="#326783"/><path d="M 791.67 197.91000000000003 A 39.58 39.58 0 0 1  831.25 158.33 L 791.67 197.91000000000003 A 39.58 39.58 0 0 0 831.25 158.33" fill="#9eb7c4"/><rect x="831.25" y="158.33" width="39.58" height="39.58" fill="#f5c9d4"/><rect x="831.25" y="158.33" width="39.58" height="39.58" fill="#c3d2db"/><rect x="791.67" y="197.92" width="39.58" height="39.58" fill="#3d6e89"/><rect x="791.67" y="197.92" width="39.58" height="39.58" fill="#da3e63"/><rect x="831.25" y="197.92" width="39.58" height="39.58" fill="#5d869c"/><path d="M 831.25 237.5 A 39.58 39.58 0 0 1  870.83 197.92 L 831.25 237.5 A 39.58 39.58 0 0 0 870.83 197.92" fill="#f8dce3"/><rect x="0" y="237.5" width="79.17" height="79.17" fill="#dd4e70"/><path d="M 0 237.5 A 79.17 79.17 0 0 1  79.17 316.67 L 0 237.5 A 79.17 79.17 0 0 0 79.17 316.67" fill="#e98aa0"/><rect x="79.16666666666667" y="237.5" width="79.16666666666667" height="79.16666666666667" fill="#ffffff"/><rect x="79.17" y="237.5" width="39.58" height="39.58" fill="#e16482"/><g transform="translate(79.17,237.5) scale(1.9789999999999999) rotate(0)"><rect width="20" height="10" fill="#6f93a8"/></g><rect x="118.75" y="237.5" width="39.58" height="39.58" fill="#44738d"/><path d="M 118.75 277.08 A 39.58 39.58 0 0 0 158.32999999999998 237.5 L 118.75 237.5" fill="#aec3ce"/><rect x="79.17" y="277.08" width="39.58" height="39.58" fill="#94afbe"/><path d="M 79.17 277.08 A 39.58 39.58 0 0 1 118.75 316.65999999999997 L 79.17 316.65999999999997" fill="#f8dbe2"/><rect x="118.75" y="277.08" width="39.58" height="39.58" fill="#eda3b5"/><polygon points="118.75,277.08 158.32999999999998,277.08 118.75,316.65999999999997" fill="#ec9db0"/><rect x="158.33333333333334" y="237.5" width="79.16666666666667" height="79.16666666666667" fill="#ffffff"/><rect x="158.33" y="237.5" width="39.58" height="39.58" fill="#db4165"/><polygon points="158.33,237.5 197.91000000000003,237.5 158.33,277.08" fill="#df5777"/><rect x="197.92" y="237.5" width="39.58" height="39.58" fill="#fae4e9"/><path d="M 197.92 277.08 A 39.58 39.58 0 0 1  237.5 237.5 L 197.92 277.08 A 39.58 39.58 0 0 0 237.5 237.5" fill="#d2dde4"/><rect x="158.33" y="277.08" width="39.58" height="39.58" fill="#b8cad4"/><rect x="158.33" y="277.08" width="39.58" height="39.58" fill="#fdf3f6"/><rect x="197.92" y="277.08" width="39.58" height="39.58" fill="#fbe9ed"/><path d="M 197.92 316.65999999999997 A 39.58 39.58 0 0 0 237.5 277.08 L 197.92 277.08" fill="#295f7d"/><rect x="237.5" y="237.5" width="79.16666666666667" height="79.16666666666667" fill="#ffffff"/><rect x="237.5" y="237.5" width="39.58" height="39.58" fill="#9cb5c3"/><path d="M 237.5 237.5 A 39.58 39.58 0 0 1 277.08 277.08 L 237.5 277.08" fill="#97b1c0"/><rect x="277.08" y="237.5" width="39.58" height="39.58" fill="#275e7c"/><g transform="translate(277.08,237.5) scale(1.9789999999999999) rotate(0)"><rect width="20" height="10" fill="#306481"/></g><rect x="237.5" y="277.08" width="39.58" height="39.58" fill="#ec9caf"/><polygon points="237.5,277.08 277.08,277.08 277.08,316.65999999999997" fill="#f3bfcb"/><rect x="277.08" y="277.08" width="39.58" height="39.58" fill="#f2bac7"/><path d="M 277.08 316.65999999999997 A 39.58 39.58 0 0 1  316.65999999999997 277.08 L 277.08 316.65999999999997 A 39.58 39.58 0 0 0 316.65999999999997 277.08" fill="#83a3b4"/><rect x="316.6666666666667" y="237.5" width="79.16666666666667" height="79.16666666666667" fill="#ffffff"/><rect x="316.67" y="237.5" width="39.58" height="39.58" fill="#fbe9ed"/><path d="M 316.67 277.08 A 39.58 39.58 0 0 1  356.25 237.5 L 316.67 277.08 A 39.58 39.58 0 0 0 356.25 237.5" fill="#d0dce2"/><rect x="356.25" y="237.5" width="39.58" height="39.58" fill="#b8cad4"/><polygon points="356.25,237.5 395.83,237.5 356.25,277.08" fill="#507c95"/><rect x="316.67" y="277.08" width="39.58" height="39.58" fill="#e78199"/><path d="M 316.67 277.08 A 39.58 39.58 0 0 1  356.25 316.65999999999997 L 316.67 277.08 A 39.58 39.58 0 0 0 356.25 316.65999999999997" fill="#e8889e"/><rect x="356.25" y="277.08" width="39.58" height="39.58" fill="#c9d7de"/><path d="M 356.25 277.08 A 39.58 39.58 0 0 1  395.83 316.65999999999997 L 356.25 277.08 A 39.58 39.58 0 0 0 395.83 316.65999999999997" fill="#46758f"/><rect x="395.83333333333337" y="237.5" width="79.16666666666667" height="79.16666666666667" fill="#ffffff"/><rect x="395.83" y="237.5" width="39.58" height="39.58" fill="#e8889e"/><g transform="translate(395.83,237.5) scale(1.9789999999999999) rotate(0)"><rect width="20" height="10" fill="#de5273"/></g><rect x="435.42" y="237.5" width="39.58" height="39.58" fill="#3c6e89"/><rect x="435.42" y="237.5" width="39.58" height="39.58" fill="#81a1b3"/><rect x="395.83" y="277.08" width="39.58" height="39.58" fill="#fdf3f6"/><path d="M 395.83 316.65999999999997 A 39.58 39.58 0 0 1  435.40999999999997 277.08 L 395.83 316.65999999999997 A 39.58 39.58 0 0 0 435.40999999999997 277.08" fill="#fdf3f5"/><rect x="435.42" y="277.08" width="39.58" height="39.58" fill="#46758f"/><g transform="translate(435.42,277.08) scale(1.9789999999999999) rotate(0)"><rect width="20" height="10" fill="#fbedf0"/></g><rect x="475" y="237.5" width="79.16666666666667" height="79.16666666666667" fill="#ffffff"/><rect x="475" y="237.5" width="39.58" height="39.58" fill="#ccd9e0"/><g transform="translate(475,237.5) scale(1.9789999999999999) rotate(0)"><rect width="20" height="10" fill="#a0b8c5"/></g><rect x="514.58" y="237.5" width="39.58" height="39.58" fill="#6a90a5"/><g transform="translate(514.58,237.5) scale(1.9789999999999999) rotate(0)"><rect width="20" height="10" fill="#db4367"/></g><rect x="475" y="277.08" width="39.58" height="39.58" fill="#9eb7c4"/><rect x="475" y="277.08" width="39.58" height="39.58" fill="#dc496c"/><rect x="514.58" y="277.08" width="39.58" height="39.58" fill="#fefbfc"/><polygon points="514.58,277.08 554.1600000000001,316.65999999999997 514.58,316.65999999999997" fill="#db4569"/><rect x="554.17" y="237.5" width="79.17" height="79.17" fill="#c8d6de"/><rect x="554.17" y="237.5" width="79.17" height="79.17" fill="#4e7b94"/><rect x="633.3333333333334" y="237.5" width="79.16666666666667" height="79.16666666666667" fill="#ffffff"/><rect x="633.33" y="237.5" width="39.58" height="39.58" fill="#dd4e70"/><polygon points="672.9100000000001,237.5 672.9100000000001,277.08 633.33,277.08" fill="#fbfcfc"/><rect x="672.92" y="237.5" width="39.58" height="39.58" fill="#e67b94"/><path d="M 672.92 277.08 A 39.58 39.58 0 0 1  712.5 237.5 L 672.92 277.08 A 39.58 39.58 0 0 0 712.5 237.5" fill="#dd4e70"/><rect x="633.33" y="277.08" width="39.58" height="39.58" fill="#e8869d"/><polygon points="672.9100000000001,277.08 672.9100000000001,316.65999999999997 633.33,316.65999999999997" fill="#eb95a9"/><rect x="672.92" y="277.08" width="39.58" height="39.58" fill="#f0b0bf"/><g transform="translate(672.92,277.08) scale(1.9789999999999999) rotate(0)"><rect width="20" height="10" fill="#fdf6f8"/></g><rect x="712.5" y="237.5" width="79.16666666666667" height="79.16666666666667" fill="#ffffff"/><rect x="712.5" y="237.5" width="39.58" height="39.58" fill="#688fa4"/><path d="M 712.5 277.08 A 39.58 39.58 0 0 0 752.08 237.5 L 712.5 237.5" fill="#45758e"/><rect x="752.08" y="237.5" width="39.58" height="39.58" fill="#efadbd"/><polygon points="791.6600000000001,237.5 791.6600000000001,277.08 752.08,277.08" fill="#4e7b94"/><rect x="712.5" y="277.08" width="39.58" height="39.58" fill="#f5cad4"/><path d="M 712.5 316.65999999999997 A 39.58 39.58 0 0 1  752.08 277.08 L 712.5 316.65999999999997 A 39.58 39.58 0 0 0 752.08 277.08" fill="#578299"/><rect x="752.08" y="277.08" width="39.58" height="39.58" fill="#dc476a"/><polygon points="791.6600000000001,277.08 791.6600000000001,316.65999999999997 752.08,316.65999999999997" fill="#fef7f9"/><rect x="791.6666666666667" y="237.5" width="79.16666666666667" height="79.16666666666667" fill="#ffffff"/><rect x="791.67" y="237.5" width="39.58" height="39.58" fill="#f5cbd5"/><g transform="translate(791.67,237.5) scale(1.9789999999999999) rotate(0)"><rect width="20" height="10" fill="#ea91a6"/></g><rect x="831.25" y="237.5" width="39.58" height="39.58" fill="#a9bfcb"/><path d="M 831.25 277.08 A 39.58 39.58 0 0 0 870.83 237.5 L 831.25 237.5" fill="#f6cfd8"/><rect x="791.67" y="277.08" width="39.58" height="39.58" fill="#7195a9"/><polygon points="831.25,277.08 831.25,316.65999999999997 791.67,316.65999999999997" fill="#e8889f"/><rect x="831.25" y="277.08" width="39.58" height="39.58" fill="#9bb4c2"/><polygon points="870.83,277.08 870.83,316.65999999999997 831.25,316.65999999999997" fill="#7196a9"/><rect x="0" y="316.67" width="79.17" height="79.17" fill="#9cb5c3"/><path d="M 0 395.84000000000003 A 79.17 79.17 0 0 1  79.17 316.67 L 0 395.84000000000003 A 79.17 79.17 0 0 0 79.17 316.67" fill="#9db6c3"/><rect x="79.16666666666667" y="316.6666666666667" width="79.16666666666667" height="79.16666666666667" fill="#ffffff"/><rect x="79.17" y="316.67" width="39.58" height="39.58" fill="#61899f"/><polygon points="79.17,316.67 118.75,316.67 79.17,356.25" fill="#a3bbc7"/><rect x="118.75" y="316.67" width="39.58" height="39.58" fill="#f0b1c0"/><polygon points="118.75,316.67 158.32999999999998,316.67 158.32999999999998,356.25" fill="#a3bbc7"/><rect x="79.17" y="356.25" width="39.58" height="39.58" fill="#f5c9d3"/><rect x="79.17" y="356.25" width="39.58" height="39.58" fill="#c7d5dd"/><rect x="118.75" y="356.25" width="39.58" height="39.58" fill="#f2bcc8"/><polygon points="118.75,356.25 158.32999999999998,395.83 118.75,395.83" fill="#f1b6c4"/><rect x="158.33333333333334" y="316.6666666666667" width="79.16666666666667" height="79.16666666666667" fill="#ffffff"/><rect x="158.33" y="316.67" width="39.58" height="39.58" fill="#99b3c1"/><g transform="translate(158.33,316.67) scale(1.9789999999999999) rotate(0)"><rect width="20" height="10" fill="#da3f64"/></g><rect x="197.92" y="316.67" width="39.58" height="39.58" fill="#fefefe"/><g transform="translate(197.92,316.67) scale(1.9789999999999999) rotate(0)"><rect width="20" height="10" fill="#ecf1f3"/></g><rect x="158.33" y="356.25" width="39.58" height="39.58" fill="#7497ab"/><rect x="158.33" y="356.25" width="39.58" height="39.58" fill="#ea90a6"/><rect x="197.92" y="356.25" width="39.58" height="39.58" fill="#e8eef1"/><polygon points="237.5,356.25 237.5,395.83 197.92,395.83" fill="#f0b2c1"/><rect x="237.5" y="316.67" width="79.17" height="79.17" fill="#e36e8a"/><g transform="translate(237.5,316.67) scale(3.9585) rotate(0)"><rect width="20" height="10" fill="#cfdbe2"/></g><rect x="316.6666666666667" y="316.6666666666667" width="79.16666666666667" height="79.16666666666667" fill="#ffffff"/><rect x="316.67" y="316.67" width="39.58" height="39.58" fill="#f4c6d1"/><path d="M 316.67 356.25 A 39.58 39.58 0 0 1  356.25 316.67 L 356.25 356.25" fill="#e4748f"/><rect x="356.25" y="316.67" width="39.58" height="39.58" fill="#b1c5d0"/><g transform="translate(356.25,316.67) scale(1.9789999999999999) rotate(0)"><rect width="20" height="10" fill="#e5ecef"/></g><rect x="316.67" y="356.25" width="39.58" height="39.58" fill="#e7839b"/><path d="M 316.67 395.83 A 39.58 39.58 0 0 1  356.25 356.25 L 356.25 395.83" fill="#f9fafb"/><rect x="356.25" y="356.25" width="39.58" height="39.58" fill="#df5979"/><rect x="356.25" y="356.25" width="39.58" height="39.58" fill="#f9e1e7"/><rect x="395.83" y="316.67" width="79.17" height="79.17" fill="#517d95"/><rect x="395.83" y="316.67" width="79.17" height="79.17" fill="#dee6eb"/><rect x="475" y="316.67" width="79.17" height="79.17" fill="#568198"/><polygon points="475,316.67 554.17,395.84000000000003 475,395.84000000000003" fill="#eda3b4"/><rect x="554.17" y="316.67" width="79.17" height="79.17" fill="#41718c"/><g transform="translate(554.17,316.67) scale(3.9585) rotate(0)"><rect width="20" height="10" fill="#6c92a6"/></g><rect x="633.33" y="316.67" width="79.17" height="79.17" fill="#efa9ba"/><polygon points="633.33,316.67 712.5,395.84000000000003 633.33,395.84000000000003" fill="#db4367"/><rect x="712.5" y="316.67" width="79.17" height="79.17" fill="#e05f7e"/><rect x="712.5" y="316.67" width="79.17" height="79.17" fill="#efabbb"/><rect x="791.6666666666667" y="316.6666666666667" width="79.16666666666667" height="79.16666666666667" fill="#ffffff"/><rect x="791.67" y="316.67" width="39.58" height="39.58" fill="#6e93a7"/><path d="M 791.67 316.67 A 39.58 39.58 0 0 1  831.25 356.25 L 791.67 316.67 A 39.58 39.58 0 0 0 831.25 356.25" fill="#ed9fb1"/><rect x="831.25" y="316.67" width="39.58" height="39.58" fill="#fefbfb"/><g transform="translate(831.25,316.67) scale(1.9789999999999999) rotate(0)"><rect width="20" height="10" fill="#e36c88"/></g><rect x="791.67" y="356.25" width="39.58" height="39.58" fill="#dc4a6d"/><path d="M 791.67 356.25 A 39.58 39.58 0 0 1  831.25 395.83 L 791.67 356.25 A 39.58 39.58 0 0 0 831.25 395.83" fill="#c7d5dd"/><rect x="831.25" y="356.25" width="39.58" height="39.58" fill="#6c91a6"/><polygon points="870.83,356.25 870.83,395.83 831.25,395.83" fill="#fefefe"/><rect x="0" y="395.83" width="79.17" height="79.17" fill="#94afbe"/><rect x="0" y="395.83" width="79.17" height="79.17" fill="#db4669"/><rect x="79.16666666666667" y="395.83333333333337" width="79.16666666666667" height="79.16666666666667" fill="#ffffff"/><rect x="79.17" y="395.83" width="39.58" height="39.58" fill="#a0b8c5"/><rect x="79.17" y="395.83" width="39.58" height="39.58" fill="#f5ccd6"/><rect x="118.75" y="395.83" width="39.58" height="39.58" fill="#f5f7f9"/><path d="M 118.75 395.83 A 39.58 39.58 0 0 1  158.32999999999998 435.40999999999997 L 118.75 395.83 A 39.58 39.58 0 0 0 158.32999999999998 435.40999999999997" fill="#5c869c"/><rect x="79.17" y="435.42" width="39.58" height="39.58" fill="#84a4b5"/><polygon points="118.75,435.42 118.75,475 79.17,475" fill="#cdd9e0"/><rect x="118.75" y="435.42" width="39.58" height="39.58" fill="#f4c4cf"/><path d="M 118.75 475 A 39.58 39.58 0 0 0 158.32999999999998 435.42 L 118.75 435.42" fill="#7c9daf"/><rect x="158.33" y="395.83" width="79.17" height="79.17" fill="#e57791"/><path d="M 158.33 475 A 79.17 79.17 0 0 1  237.5 395.83 L 158.33 475 A 79.17 79.17 0 0 0 237.5 395.83" fill="#dd4f71"/><rect x="237.5" y="395.83333333333337" width="79.16666666666667" height="79.16666666666667" fill="#ffffff"/><rect x="237.5" y="395.83" width="39.58" height="39.58" fill="#ec9bae"/><g transform="translate(237.5,395.83) scale(1.9789999999999999) rotate(0)"><rect width="20" height="10" fill="#eea8b8"/></g><rect x="277.08" y="395.83" width="39.58" height="39.58" fill="#92aebd"/><rect x="277.08" y="395.83" width="39.58" height="39.58" fill="#e0607e"/><rect x="237.5" y="435.42" width="39.58" height="39.58" fill="#316582"/><g transform="translate(237.5,435.42) scale(1.9789999999999999) rotate(0)"><rect width="20" height="10" fill="#2b617f"/></g><rect x="277.08" y="435.42" width="39.58" height="39.58" fill="#94afbe"/><path d="M 277.08 475 A 39.58 39.58 0 0 1  316.65999999999997 435.42 L 277.08 475 A 39.58 39.58 0 0 0 316.65999999999997 435.42" fill="#f5f7f9"/><rect x="316.6666666666667" y="395.83333333333337" width="79.16666666666667" height="79.16666666666667" fill="#ffffff"/><rect x="316.67" y="395.83" width="39.58" height="39.58" fill="#285e7c"/><rect x="316.67" y="395.83" width="39.58" height="39.58" fill="#e8889f"/><rect x="356.25" y="395.83" width="39.58" height="39.58" fill="#ea90a5"/><g transform="translate(356.25,395.83) scale(1.9789999999999999) rotate(0)"><rect width="20" height="10" fill="#e889a0"/></g><rect x="316.67" y="435.42" width="39.58" height="39.58" fill="#59839a"/><path d="M 316.67 475 A 39.58 39.58 0 0 1  356.25 435.42 L 316.67 475 A 39.58 39.58 0 0 0 356.25 435.42" fill="#fbe8ed"/><rect x="356.25" y="435.42" width="39.58" height="39.58" fill="#f2beca"/><path d="M 356.25 475 A 39.58 39.58 0 0 1  395.83 435.42 L 356.25 475 A 39.58 39.58 0 0 0 395.83 435.42" fill="#fafcfc"/><rect x="395.83333333333337" y="395.83333333333337" width="79.16666666666667" height="79.16666666666667" fill="#ffffff"/><rect x="395.83" y="395.83" width="39.58" height="39.58" fill="#ccd9e0"/><polygon points="435.40999999999997,395.83 435.40999999999997,435.40999999999997 395.83,435.40999999999997" fill="#c3d2db"/><rect x="435.42" y="395.83" width="39.58" height="39.58" fill="#42728c"/><path d="M 435.42 395.83 A 39.58 39.58 0 0 1  475 435.40999999999997 L 435.42 395.83 A 39.58 39.58 0 0 0 475 435.40999999999997" fill="#f2bbc8"/><rect x="395.83" y="435.42" width="39.58" height="39.58" fill="#e4758f"/><g transform="translate(395.83,435.42) scale(1.9789999999999999) rotate(0)"><rect width="20" height="10" fill="#6e93a7"/></g><rect x="435.42" y="435.42" width="39.58" height="39.58" fill="#b4c7d1"/><path d="M 435.42 475 A 39.58 39.58 0 0 1  475 435.42 L 475 475" fill="#e78199"/><rect x="475" y="395.83333333333337" width="79.16666666666667" height="79.16666666666667" fill="#ffffff"/><rect x="475" y="395.83" width="39.58" height="39.58" fill="#fae2e8"/><path d="M 475 395.83 A 39.58 39.58 0 0 1  514.58 435.40999999999997 L 475 395.83 A 39.58 39.58 0 0 0 514.58 435.40999999999997" fill="#dfe7eb"/><rect x="514.58" y="395.83" width="39.58" height="39.58" fill="#f6cfd8"/><g transform="translate(514.58,395.83) scale(1.9789999999999999) rotate(0)"><rect width="20" height="10" fill="#6c91a6"/></g><rect x="475" y="435.42" width="39.58" height="39.58" fill="#507d95"/><path d="M 475 435.42 A 39.58 39.58 0 0 1  514.58 475 L 475 435.42 A 39.58 39.58 0 0 0 514.58 475" fill="#e78199"/><rect x="514.58" y="435.42" width="39.58" height="39.58" fill="#b8cad4"/><path d="M 514.58 475 A 39.58 39.58 0 0 1  554.1600000000001 435.42 L 514.58 475 A 39.58 39.58 0 0 0 554.1600000000001 435.42" fill="#5f889e"/><rect x="554.17" y="395.83" width="79.17" height="79.17" fill="#7397aa"/><path d="M 554.17 475 A 79.17 79.17 0 0 0 633.3399999999999 395.83 L 554.17 395.83" fill="#fbebef"/><rect x="633.33" y="395.83" width="79.17" height="79.17" fill="#eef2f5"/><path d="M 633.33 475 A 79.17 79.17 0 0 1  712.5 395.83 L 712.5 475" fill="#f6f8f9"/><rect x="712.5" y="395.83" width="79.17" height="79.17" fill="#8daaba"/><polygon points="712.5,395.83 791.67,475 712.5,475" fill="#7095a9"/><rect x="791.67" y="395.83" width="79.17" height="79.17" fill="#285e7c"/><polygon points="791.67,395.83 870.8399999999999,395.83 870.8399999999999,475" fill="#db4568"/></g></svg>